<svg width="25" height="19" viewBox="0 0 25 19" fill="none" xmlns="http://www.w3.org/2000/svg">
<path d="M9.68298 7.09618C9.68298 8.40255 8.67563 9.46157 7.43298 9.46157C6.19034 9.46157 5.18298 8.40255 5.18298 7.09618C5.18298 5.78981 6.19034 4.7308 7.43298 4.7308C8.67563 4.7308 9.68298 5.78981 9.68298 7.09618Z" fill="#212121"/>
<path d="M3.68286 12.1404C3.68286 11.3141 4.32005 10.6442 5.10605 10.6442H9.75968C10.5457 10.6442 11.1829 11.3141 11.1829 12.1404C11.1829 13.4764 10.3179 14.6409 9.08502 14.965L8.99651 14.9883C7.96988 15.2581 6.89585 15.2581 5.86922 14.9883L5.7807 14.965C4.54778 14.6409 3.68286 13.4764 3.68286 12.1404Z" fill="#212121"/>
<path d="M14.9329 6.30767C14.5188 6.30767 14.1829 6.66068 14.1829 7.09613C14.1829 7.53158 14.5188 7.88459 14.9329 7.88459H19.4329C19.8471 7.88459 20.1829 7.53158 20.1829 7.09613C20.1829 6.66068 19.8471 6.30767 19.4329 6.30767H14.9329Z" fill="#212121"/>
<path d="M14.9329 11.0385C14.5188 11.0385 14.1829 11.3916 14.1829 11.8269C14.1829 12.2623 14.5188 12.6154 14.9329 12.6154H19.4329C19.8471 12.6154 20.1829 12.2623 20.1829 11.8269C20.1829 11.3916 19.8471 11.0385 19.4329 11.0385H14.9329Z" fill="#212121"/>
<path d="M0.682922 2.75962C0.682922 1.23552 1.85817 0 3.30792 0H22.0579C23.5077 0 24.6829 1.23552 24.6829 2.75962V16.1635C24.6829 17.6876 23.5077 18.9231 22.0579 18.9231H3.30792C1.85817 18.9231 0.682922 17.6876 0.682922 16.1635V2.75962ZM3.30792 1.57692C2.68661 1.57692 2.18292 2.10644 2.18292 2.75962V16.1635C2.18292 16.8166 2.68661 17.3462 3.30792 17.3462H22.0579C22.6792 17.3462 23.1829 16.8166 23.1829 16.1635V2.75962C23.1829 2.10644 22.6792 1.57692 22.0579 1.57692H3.30792Z" fill="#212121"/>
</svg>
