<?xml version="1.0" standalone="no"?>
<!DOCTYPE svg PUBLIC "-//W3C//DTD SVG 20010904//EN"
 "http://www.w3.org/TR/2001/REC-SVG-20010904/DTD/svg10.dtd">
<svg version="1.0" xmlns="http://www.w3.org/2000/svg"
 width="500.000000pt" height="500.000000pt" viewBox="0 0 500.000000 500.000000"
 preserveAspectRatio="xMidYMid meet">

<g transform="translate(0.000000,500.000000) scale(0.100000,-0.100000)"
fill="#000000" stroke="none">
<path d="M283 4470 c-108 -16 -204 -88 -252 -190 l-26 -55 0 -1725 0 -1725 26
-55 c50 -106 142 -173 261 -191 83 -12 4333 -12 4416 0 119 18 211 85 261 191
l26 55 0 1725 0 1725 -27 57 c-49 104 -141 171 -260 189 -76 10 -4350 10
-4425 -1z m4419 -287 c17 -15 18 -63 18 -1120 0 -606 -3 -1103 -7 -1102 -5 0
-45 48 -90 107 -96 126 -323 418 -541 696 -196 250 -247 285 -384 273 -103 -9
-137 -36 -381 -306 -122 -135 -290 -320 -372 -411 -83 -91 -208 -229 -278
-307 -71 -79 -140 -152 -154 -163 -48 -38 -70 -29 -316 127 -394 249 -580 364
-628 389 -65 32 -164 47 -240 35 -119 -20 -101 -7 -807 -544 -128 -97 -235
-177 -237 -177 -3 0 -5 559 -5 1242 0 1141 1 1243 17 1260 15 17 97 18 2201
18 2020 0 2187 -1 2204 -17z m-792 -1649 c96 -124 318 -409 492 -632 l317
-407 1 -329 c0 -293 -2 -331 -17 -348 -15 -17 -97 -18 -2201 -18 -2020 0
-2187 1 -2204 17 -17 15 -18 36 -18 262 l1 246 290 220 c160 121 396 300 524
397 244 184 278 203 336 181 27 -11 199 -117 631 -390 125 -79 243 -150 264
-159 20 -8 67 -18 104 -21 84 -7 185 21 247 69 23 18 115 114 205 214 90 99
285 315 433 479 149 165 299 332 335 371 36 40 70 73 75 73 6 0 89 -101 185
-225z"/>
<path d="M1961 3544 c-175 -47 -314 -190 -356 -365 -40 -173 10 -344 139 -467
160 -154 380 -186 581 -84 74 37 175 144 213 223 157 330 -87 712 -453 708
-38 0 -94 -7 -124 -15z m229 -286 c119 -61 156 -216 76 -321 -129 -170 -396
-84 -396 128 0 161 174 266 320 193z"/>
</g>
</svg>
